solid OpenSCAD_Model
  facet normal 0 -1 0
    outer loop
      vertex 6.65 0.2 2.65
      vertex 173.35 0.2 19.35
      vertex 6.65 0.2 19.35
    endloop
  endfacet
  facet normal 0 -1 -0
    outer loop
      vertex 173.35 0.2 19.35
      vertex 6.65 0.2 2.65
      vertex 173.35 0.2 2.65
    endloop
  endfacet
  facet normal 0 1 -0
    outer loop
      vertex 173.35 1.2 2.65
      vertex 6.65 1.2 19.35
      vertex 173.35 1.2 19.35
    endloop
  endfacet
  facet normal 0 1 0
    outer loop
      vertex 6.65 1.2 19.35
      vertex 173.35 1.2 2.65
      vertex 6.65 1.2 2.65
    endloop
  endfacet
  facet normal 0 0 -1
    outer loop
      vertex 6.65 0.2 2.65
      vertex 173.35 1.2 2.65
      vertex 173.35 0.2 2.65
    endloop
  endfacet
  facet normal -0 0 -1
    outer loop
      vertex 173.35 1.2 2.65
      vertex 6.65 0.2 2.65
      vertex 6.65 1.2 2.65
    endloop
  endfacet
  facet normal 1 -0 0
    outer loop
      vertex 173.35 0.2 19.35
      vertex 173.35 1.2 2.65
      vertex 173.35 1.2 19.35
    endloop
  endfacet
  facet normal 1 0 0
    outer loop
      vertex 173.35 1.2 2.65
      vertex 173.35 0.2 19.35
      vertex 173.35 0.2 2.65
    endloop
  endfacet
  facet normal -0 0 1
    outer loop
      vertex 6.65 1.2 19.35
      vertex 173.35 0.2 19.35
      vertex 173.35 1.2 19.35
    endloop
  endfacet
  facet normal 0 0 1
    outer loop
      vertex 173.35 0.2 19.35
      vertex 6.65 1.2 19.35
      vertex 6.65 0.2 19.35
    endloop
  endfacet
  facet normal -1 0 0
    outer loop
      vertex 6.65 0.2 2.65
      vertex 6.65 1.2 19.35
      vertex 6.65 1.2 2.65
    endloop
  endfacet
  facet normal -1 -0 0
    outer loop
      vertex 6.65 1.2 19.35
      vertex 6.65 0.2 2.65
      vertex 6.65 0.2 19.35
    endloop
  endfacet
endsolid OpenSCAD_Model
